# xmcd
# 
# Track frame offsets:
#     150
#     13800
#     27926
#     49964
#     66435
#     82421
#     93304
#     114671
#     134927
#     153690
#     174687
# 
# Disc length: 2563
# 
# Revision: 0
# Processed by: cddbd v1.5.2PL0 Copyright (c) Steve Scherf et al.
# Submitted via: fre:ac v1.0.31
# 
DISCID=a80a010b
DTITLE=The Smokin' Fez Monkeys - Live In Their Own Habitat
DYEAR=0
DGENRE=Rock/Pop
TTITLE0=Full Dress Monkey
TTITLE1=Shimmy Like My Sister Kate
TTITLE2=The Bigfoot Boogie
TTITLE3=Refrigerator pirates
TTITLE4=People Are Strange/Washington Square
TTITLE5=The Viking Woman
TTITLE6=Codfish Ball
TTITLE7=My Girlfriend Is A Dinosaur
TTITLE8=The Pantyhose Dance
TTITLE9=I Will Survive
TTITLE10=No Title
EXTD=
EXTT0=
EXTT1=
EXTT2=
EXTT3=
EXTT4=
EXTT5=
EXTT6=
EXTT7=
EXTT8=
EXTT9=
EXTT10=
PLAYORDER=
